<?xml version="1.0" encoding="UTF-8"?>
<svg id="Layer_1" xmlns="http://www.w3.org/2000/svg" xmlns:xlink="http://www.w3.org/1999/xlink" version="1.1" viewBox="0 0 500 500">
  <!-- Generator: Adobe Illustrator 29.0.1, SVG Export Plug-In . SVG Version: 2.1.0 Build 192)  -->
  <defs>
    <style>
      .st0 {
        fill: url(#linear-gradient);
      }

      .st1 {
        fill: #fff;
      }

      .st2 {
        opacity: .7;
      }
    </style>
    <linearGradient id="linear-gradient" x1="-5226" y1="0" x2="-5226" y2="500" gradientTransform="translate(-4976 499) rotate(-180)" gradientUnits="userSpaceOnUse">
      <stop offset="0" stop-color="#ff9100"/>
      <stop offset="1" stop-color="#ffa80a"/>
    </linearGradient>
  </defs>
  <rect class="st0" width="500" height="500"/>
  <g>
    <polygon class="st1" points="230.4 170.4 160.1 170.4 140.6 170.4 70.4 170.4 70.4 190.2 140.6 190.2 140.6 331.2 160.1 331.2 160.1 190.2 230.4 190.2 230.4 170.4"/>
    <path class="st1" d="M411.1,168.8c-10.3,0-18.7,8.4-18.7,18.7s1.2,7.5,3.2,10.5l-34.3,71.9h-50.2l-34.3-71.9c2-3,3.2-6.7,3.2-10.5,0-10.3-8.4-18.7-18.7-18.7h-.2c-10.3,0-18.7,8.4-18.7,18.7s7.6,18,17.3,18.7l32,66.6c-11.3,5.1-19.3,16.5-19.3,29.7v27.8c0,.5.4.9.9.9h125.4c.5,0,.9-.4.9-.9h0v-27.8c0-13.2-7.8-24.5-19.1-29.7l32-66.6c9.7-.7,17.3-8.9,17.3-18.7s-8.4-18.7-18.7-18.7h0Z"/>
    <g class="st2">
      <rect class="st1" x="420.4" y="240" width="19.5" height="87.3"/>
      <path class="st1" d="M224.7,274.4h-.6c-10.8-1.7-19.8-3.5-20.7-9.6,0-.9,0-2.9,1.5-4.9,2.9-3.5,9.6-4.9,19.5-4.9s22.7,4.4,26.8,6.1l6.1-15.1c-4.4-1.7-18.3-6.7-33.8-6.7s-39,9.3-39,26.2,9.6,21,34.6,25.3c17.8,2.9,27.4,4.7,27.1,12.2-.3,4.1-3.5,11.1-23.3,11.1s-27.4-5.8-31.1-8.2l-8.2,14.8c4.4,2.3,19.2,9.3,38.1,9.3,27.7,0,42.5-9.6,42.5-27.9.3-13.1-6.1-21.8-39.6-27.7Z"/>
      <polygon class="st1" points="712.7 274.4 671.9 274.4 671.9 240 653.8 240 653.8 327.4 671.9 327.4 671.9 292.4 712.7 292.4 712.7 327.4 730.7 327.4 730.7 240 712.7 240 712.7 274.4"/>
      <path class="st1" d="M595.9,256.6c9.9,0,18.9,5.2,23.9,13.7l14.3-12.2c-8.7-12.8-23-20.7-38.7-20.7-25.6,0-46.6,21-46.6,46.6s21,46.6,46.6,46.6,30-7.6,38.7-20.7l-14.3-12.2c-4.9,8.2-14,13.7-23.9,13.7-15.1,0-27.7-12.2-27.7-27.1s12.2-27.7,27.7-27.7h0Z"/>
      <polygon class="st1" points="461.1 258.4 489.1 258.4 489.1 327.1 508 327.1 508 258.4 535.4 258.4 535.4 239.8 461.4 239.8 461.4 258.4 461.1 258.4"/>
    </g>
  </g>
</svg>