<?xml version="1.0" encoding="UTF-8"?>
<svg id="Layer_1" xmlns="http://www.w3.org/2000/svg" xmlns:xlink="http://www.w3.org/1999/xlink" version="1.1" viewBox="0 0 500 500">
  <!-- Generator: Adobe Illustrator 29.0.1, SVG Export Plug-In . SVG Version: 2.1.0 Build 192)  -->
  <defs>
    <style>
      .st0 {
        fill: url(#linear-gradient);
      }

      .st1 {
        fill: #fff;
      }

      .st2 {
        opacity: .7;
      }
    </style>
    <linearGradient id="linear-gradient" x1="250" y1="2738" x2="250" y2="3238" gradientTransform="translate(500 3237) rotate(-180)" gradientUnits="userSpaceOnUse">
      <stop offset="0" stop-color="#ff9100"/>
      <stop offset="1" stop-color="#ffa80a"/>
    </linearGradient>
  </defs>
  <rect class="st0" y="0" width="500" height="500"/>
  <g>
    <g class="st2">
      <rect class="st1" x="420.4" y="240.6" width="19.5" height="87.3"/>
      <path class="st1" d="M224.8,275h-.6c-10.8-1.7-19.8-3.5-20.7-9.6,0-.9,0-2.9,1.5-4.9,2.9-3.5,9.6-4.9,19.5-4.9s22.7,4.4,26.8,6.1l6.1-15.1c-4.4-1.7-18.3-6.7-33.8-6.7s-39,9.3-39,26.2,9.6,21,34.6,25.3c17.8,2.9,27.4,4.7,27.1,12.2-.3,4.1-3.5,11.1-23.3,11.1s-27.4-5.8-31.1-8.2l-8.2,14.8c4.4,2.3,19.2,9.3,38.1,9.3,27.7,0,42.5-9.6,42.5-27.9.3-13.1-6.1-21.8-39.6-27.7Z"/>
      <polygon class="st1" points="712.7 275 671.9 275 671.9 240.6 653.9 240.6 653.9 328 671.9 328 671.9 293 712.7 293 712.7 328 730.7 328 730.7 240.6 712.7 240.6 712.7 275"/>
      <path class="st1" d="M596,257.2c9.9,0,18.9,5.2,23.9,13.7l14.3-12.2c-8.7-12.8-23-20.7-38.7-20.7-25.6,0-46.6,21-46.6,46.6s21,46.6,46.6,46.6,30-7.6,38.7-20.7l-14.3-12.2c-4.9,8.2-14,13.7-23.9,13.7-15.1,0-27.7-12.2-27.7-27.1s12.2-27.7,27.7-27.7h0Z"/>
      <polygon class="st1" points="461.2 259 489.1 259 489.1 327.7 508 327.7 508 259 535.4 259 535.4 240.3 461.5 240.3 461.5 259 461.2 259"/>
    </g>
    <g>
      <path class="st1" d="M261.1,168.8c-10.3,0-18.7,8.4-18.7,18.7s7.6,18,17.3,18.7l41,85.4c-12.9,8.4-23,21.2-27.5,36.3h20.2c7.2-16.5,23.6-28.1,42.7-28.1s35.5,11.6,42.7,28.1h20.2c-4.5-15.1-14.6-27.9-27.5-36.3l41-85.4c9.7-.7,17.3-8.9,17.3-18.7s-8.4-18.7-18.7-18.7-18.7,8.4-18.7,18.7,1.2,7.5,3.2,10.5l-41,86c-5.9-1.8-12-2.9-18.4-2.9s-12.5,1.2-18.4,2.9l-41-86c2-3,3.2-6.7,3.2-10.5,0-10.3-8.4-18.7-18.7-18.7Z"/>
      <g>
        <rect class="st1" x="140.6" y="170.4" width="19.5" height="160.8"/>
        <rect class="st1" x="70.4" y="170.4" width="160" height="19.8"/>
      </g>
    </g>
  </g>
  <path class="st1" d="M399.6,330.3v-27.8c0-18-14.6-32.6-32.6-32.6h-62c-18,0-32.6,14.6-32.6,32.6v27.8c0,.5.4.9.9.9h125.4c.5,0,.9-.4.9-.9Z"/>
</svg>