<?xml version="1.0" encoding="UTF-8"?>
<svg id="Layer_1" xmlns="http://www.w3.org/2000/svg" version="1.1" viewBox="0 0 800 800">
  <!-- Generator: Adobe Illustrator 29.0.1, SVG Export Plug-In . SVG Version: 2.1.0 Build 192)  -->
  <defs>
    <style>
      .st0 {
        fill: #ff9100;
      }
    </style>
  </defs>
  <path class="st0" d="M733.3,500v33.3c0,94.3,0,141.4-29.3,170.7-29.3,29.3-76.4,29.3-170.7,29.3h-266.7c-94.3,0-141.4,0-170.7-29.3-29.3-29.3-29.3-76.4-29.3-170.7v-33.3c0-94.3,0-141.4,29.3-170.7s76.2-29.3,170.1-29.3c-8.9,3.6-17.2,8.7-24.6,15-9.1,7.8-16.5,17.2-21.7,27.6-5.3,10.4-8.5,21.9-9.4,33.8-1.9,23.9,5.8,47.2,21.4,65.4l100,116.7c17.1,20,42,31.4,68.3,31.4s51.2-11.5,68.3-31.4l100-116.7c15.6-18.3,23.2-41.5,21.4-65.5-1.8-24-12.9-45.8-31.1-61.4-7.4-6.4-15.7-11.4-24.6-15,93.9,0,140.9,0,170.1,29.3s29.3,76.4,29.3,170.7Z"/>
  <path class="st0" d="M530.4,409.4l-100,116.7c-7.6,8.9-18.7,14-30.4,14s-22.8-5.1-30.4-14l-100-116.7c-7-8.1-10.3-18.5-9.5-29.1.8-10.7,5.7-20.4,13.8-27.3,7.2-6.2,16.5-9.6,26-9.6s22.8,5.1,30.4,14l29.6,34.6V66.7c0-22.1,17.9-40,40-40s40,17.9,40,40v325.2l29.6-34.6c7.6-8.9,18.7-14,30.4-14s18.8,3.4,26,9.6c8.1,7,13,16.6,13.8,27.3.8,10.6-2.6,21-9.5,29.1Z"/>
</svg>