<?xml version="1.0" encoding="UTF-8"?>
<svg id="Layer_1" xmlns="http://www.w3.org/2000/svg" version="1.1" viewBox="0 0 800 800">
  <!-- Generator: Adobe Illustrator 29.0.1, SVG Export Plug-In . SVG Version: 2.1.0 Build 192)  -->
  <defs>
    <style>
      .st0 {
        fill: #61666d;
      }
    </style>
  </defs>
  <path class="st0" d="M562.8,414.5l-133.3,145.8c-7.6,8.3-18.3,13-29.5,13s-22-4.7-29.5-13l-133.3-145.8c-7.2-7.9-10.9-18.1-10.4-28.8.5-10.7,5.1-20.5,13-27.7,7.4-6.8,17-10.5,27-10.5s22,4.7,29.5,13l63.8,69.8V100c0-22.1,17.9-40,40-40s40,17.9,40,40v330.3l63.8-69.8c7.6-8.3,18.3-13,29.5-13s19.6,3.7,27,10.5c16.3,14.9,17.4,40.2,2.5,56.5Z"/>
  <path class="st0" d="M740,500v1.8c0,46.6,0,83.3-4,113.2-5,37.5-16.4,63.4-37,83.9-20.5,20.5-46.4,32-83.9,37-29.9,4-66.7,4-113.2,4h-203.7c-46.6,0-83.3,0-113.2-4-37.5-5-63.4-16.4-83.9-37-20.5-20.5-32-46.4-37-83.9-4-29.9-4-66.7-4-113.2v-1.8c0-22.1,17.9-40,40-40s40,17.9,40,40c0,46.3,0,79.8,3.3,104.4,3.3,24.2,9,32.8,14.3,38s13.8,11,38,14.3c24.6,3.3,58.1,3.3,104.4,3.3h200c46.3,0,79.8,0,104.4-3.3,24.2-3.3,32.8-9,38-14.3s11-13.8,14.3-38c3.3-24.6,3.3-58.1,3.3-104.4s17.9-40,40-40,40,17.9,40,40Z"/>
</svg>