<svg width="26" height="26" viewBox="0 0 26 26" fill="none" xmlns="http://www.w3.org/2000/svg">
    <g transform="translate(13 13) scale(1.12) translate(-13 -13)">
        <path fill-rule="evenodd" clip-rule="evenodd" d="M13 9.1125c-2.175 0-3.9375 1.7625-3.9375 3.9375S10.825 16.9875 13 16.9875 16.9375 15.225 16.9375 13 15.175 9.1125 13 9.1125Zm-.8469 1.87a2.2175 2.2175 0 1 1 3.125 2.0475 2.2175 2.2175 0 0 1-3.125-2.0475Z" fill="#61666D"/>
        <path fill-rule="evenodd" clip-rule="evenodd" d="M11.809 4.903c.76-.3337 1.621-.3337 2.381 0l4.51 1.37a2.925 2.925 0 0 1 1.9975 2.7625v3.93c0 1.1675-.705 2.21-1.7875 2.65l-4.72 1.95a2.925 2.925 0 0 1-2.161 0l-4.72-1.95a2.925 2.925 0 0 1-1.7875-2.65v-3.93a2.925 2.925 0 0 1 1.9975-2.7625l4.51-1.37Zm.6325 1.5c.32-.14.6762-.14.9962 0l4.51 1.37a1.425 1.425 0 0 1 .9725 1.345v3.93c0 .58-.35 1.095-.8875 1.3225l-4.72 1.95c-.36.1488-.7612.1488-1.1225 0l-4.72-1.95a1.425 1.425 0 0 1-.8875-1.3225v-3.93c0-.61.39-1.15.9725-1.345l4.51-1.37Z" fill="#61666D"/>
    </g>
</svg>