<?xml version="1.0" encoding="UTF-8"?>
<svg id="Layer_1" xmlns="http://www.w3.org/2000/svg" version="1.1" viewBox="0 0 568 354">
  <!-- Generator: Adobe Illustrator 29.0.1, SVG Export Plug-In . SVG Version: 2.1.0 Build 192)  -->
  <defs>
    <style>
      .st0 {
        display: none;
        fill: #2a2a2a;
      }

      .st1 {
        opacity: .2;
      }
    </style>
  </defs>
  <rect class="st0" width="568" height="354"/>
  <path class="st1" d="M359.5,96.3c-10.3,0-18.7,8.4-18.7,18.7s1.2,7.5,3.2,10.5l-34.3,71.9h-50.2l-34.3-71.9c2-3,3.2-6.7,3.2-10.5,0-10.3-8.4-18.7-18.7-18.7h-.2c-10.3,0-18.7,8.4-18.7,18.7s7.6,18,17.3,18.7l32,66.6c-11.3,5.1-19.3,16.5-19.3,29.7v27.8c0,.5.4.9.9.9h125.4c.5,0,.9-.4.9-.9h0v-27.8c0-13.2-7.8-24.5-19.1-29.7l32-66.6c9.7-.7,17.3-8.9,17.3-18.7s-8.4-18.7-18.7-18.7h0Z"/>
</svg>